<svg xmlns="http://www.w3.org/2000/svg" width="64" height="64" viewBox="0 0 64 64">
  <rect width="64" height="64" rx="14" fill="#1e293b"/>
  <!-- top and bottom caps -->
  <rect x="17" y="9" width="30" height="5" rx="2.5" fill="#e2e8f0"/>
  <rect x="17" y="50" width="30" height="5" rx="2.5" fill="#e2e8f0"/>
  <!-- glass outline -->
  <path d="M22 14 H42 V18 C42 23.5 38 27.5 34 30.6 L32.2 32 L34 33.4 C38 36.5 42 40.5 42 46 V50 H22 V46 C22 40.5 26 36.5 30 33.4 L31.8 32 L30 30.6 C26 27.5 22 23.5 22 18 Z"
        fill="none" stroke="#cbd5e1" stroke-width="2" stroke-linejoin="round"/>
  <!-- sand: top bulb -->
  <path d="M25.5 18 H38.5 C38.5 22.5 35.5 25.5 32.8 27.6 L32 28.2 L31.2 27.6 C28.5 25.5 25.5 22.5 25.5 18 Z" fill="#f59e0b"/>
  <!-- sand: falling stream -->
  <rect x="31.3" y="29" width="1.4" height="9" rx="0.7" fill="#fbbf24"/>
  <!-- sand: bottom pile -->
  <path d="M32 36.5 C34.5 38.8 38.5 41.8 38.5 46.5 V47.5 H25.5 V46.5 C25.5 41.8 29.5 38.8 32 36.5 Z" fill="#f59e0b"/>
</svg>
